PathFileType  4	(X/Y/Z) C:\Users\antoi\Documents\MyRepositories\mobilecap\ResultsAnalysis
DataRate	CameraRate	NumFrames	NumMarkers	Units	OrigDataRate	OrigDataStartFrame	OrigNumFrames
100.0	100.0	6	51	mm	100.0	593	1184
Frame#	Time	r_knee			r_shank_antsup			r_ankle			r_calc			r_5meta			r_toe			L_knee			L_shank_antsup			L_ankle			L_calc			L_5meta			L_toe			r_sh2			r_sh3			r_sh4			L_sh2			L_sh3			r_thigh1			r_thigh2			r_thigh3			r_thigh4			r_thigh5			L_thigh1			L_thigh2			L_thigh3			L_thigh4			r.ASIS			r.PSIS			L.ASIS			L.PSIS			C7			R_Shoulder			L_Shoulder			R_Sternum			L_Sternum			R_humerus			R_elbow_med			R_elbow_lat			R_forearm			R_wrist_radius			R_wrist_ulna			L_humerus			L_elbow_med			L_elbow_lat			L_forearm			L_wrist_radius			L_wrist_ulna			R_HJC			L_HJC			R_HJC_reg			L_HJC_reg			
		X1	Y1	Z1	X2	Y2	Z2	X3	Y3	Z3	X4	Y4	Z4	X5	Y5	Z5	X6	Y6	Z6	X7	Y7	Z7	X8	Y8	Z8	X9	Y9	Z9	X10	Y10	Z10	X11	Y11	Z11	X12	Y12	Z12	X13	Y13	Z13	X14	Y14	Z14	X15	Y15	Z15	X16	Y16	Z16	X17	Y17	Z17	X18	Y18	Z18	X19	Y19	Z19	X20	Y20	Z20	X21	Y21	Z21	X22	Y22	Z22	X23	Y23	Z23	X24	Y24	Z24	X25	Y25	Z25	X26	Y26	Z26	X27	Y27	Z27	X28	Y28	Z28	X29	Y29	Z29	X30	Y30	Z30	X31	Y31	Z31	X32	Y32	Z32	X33	Y33	Z33	X34	Y34	Z34	X35	Y35	Z35	X36	Y36	Z36	X37	Y37	Z37	X38	Y38	Z38	X39	Y39	Z39	X40	Y40	Z40	X41	Y41	Z41	X42	Y42	Z42	X43	Y43	Z43	X44	Y44	Z44	X45	Y45	Z45	X46	Y46	Z46	X47	Y47	Z47	X48	Y48	Z48	X49	Y49	Z49	X50	Y50	Z50	X51	Y51	Z51	

593	5.92000000	-140.04318	412.15157	-359.99687	-116.49767	298.19696	-366.27655	-299.18503	92.10740	-411.73444	-348.67783	52.92811	-463.95840	-206.80173	40.34497	-351.11143	-162.68981	57.51457	-386.62506	-119.89776	419.25362	-889.30439	-84.09594	304.16896	-859.54289	-285.93527	93.04581	-854.37196	-333.27423	53.45063	-804.84846	-185.35670	37.20582	-905.23981	-135.87664	53.46881	-859.65388	-175.93228	205.13681	-388.00224	-176.67887	325.19445	-329.25611	-244.84294	240.84308	-359.86541	-135.68846	352.24092	-913.21665	-201.92757	250.36312	-918.60582	-349.88754	612.52812	-432.53300	-258.39810	571.91801	-401.49513	-268.66387	518.31795	-357.89947	-406.18277	522.14752	-395.25666	-305.07014	476.79145	-363.01055	-335.48560	593.94109	-830.98434	-214.42379	550.38560	-857.63004	-395.74405	502.99590	-864.76269	-264.03915	456.54583	-888.37160	-301.29466	589.61491	-504.39743	-430.85622	703.28272	-583.87162	-288.94953	571.32291	-729.32411	-422.54295	701.86373	-688.87483	-139.20706	1016.96464	-621.93210	-82.85547	975.30487	-477.87488	-64.59251	971.54246	-760.84867	-46.66627	919.58459	-596.12219	-40.53958	918.69665	-640.79709	-47.00477	893.34508	-397.05434	-80.28517	697.05357	-306.80273	-20.85165	750.99118	-280.29256	20.39946	781.96261	-392.20192	31.79010	801.29791	-489.43362	68.16966	791.75619	-482.34953	-4.32731	869.04373	-832.18757	-9.44254	671.12919	-894.94301	50.63511	715.93764	-923.04802	76.25145	747.37179	-820.75281	53.05365	774.44127	-702.86520	83.69243	765.87706	-699.33936	-411.33617	566.78985	-525.74948	-397.56601	548.15485	-713.70427	-392.80123	555.87817	-542.11592	-381.02952	553.86878	-690.80114	
594	5.93000000	-140.35018	412.46215	-360.43075	-116.78033	298.58260	-366.58760	-299.21567	92.06797	-411.80370	-348.68765	52.95390	-463.97191	-206.81270	40.43653	-351.12942	-162.68195	57.59355	-386.65198	-120.19545	419.53565	-889.02009	-84.36970	304.49970	-859.35331	-285.95825	93.01060	-854.28978	-333.22729	53.35103	-804.74998	-185.35064	37.20739	-905.20367	-135.88707	53.47975	-859.63801	-176.08475	205.29010	-388.38976	-176.97816	325.42528	-329.55288	-244.91922	240.99305	-359.95646	-135.94897	352.52744	-912.95176	-202.10088	250.44276	-918.16404	-349.89990	613.26587	-432.64287	-258.41787	572.25465	-402.02011	-268.74418	518.84153	-358.28622	-406.29789	522.91667	-395.42804	-305.16595	477.29417	-363.41330	-335.47528	594.63421	-830.89135	-214.44236	550.83975	-857.45310	-395.73727	503.79219	-864.40628	-264.31881	457.21416	-888.43903	-301.44942	590.33003	-504.58371	-430.81757	704.22423	-583.73089	-288.90708	572.25013	-729.62209	-422.66193	703.00435	-688.92129	-139.60451	1018.14283	-621.75732	-83.21442	976.60927	-477.54010	-65.01666	972.89677	-760.68731	-46.91470	920.76263	-595.85085	-40.72590	919.95999	-640.38624	-47.50884	894.61947	-396.54142	-81.37481	699.17551	-305.18148	-21.57239	752.47148	-279.64501	19.91214	783.22589	-391.80527	31.60434	802.63425	-488.82301	67.97244	793.04320	-481.58300	-4.66756	870.62368	-832.09135	-9.64113	672.79105	-895.30088	50.39628	717.79080	-923.55864	76.23116	748.96574	-821.21186	53.22176	775.73682	-703.24975	83.85099	767.16239	-699.87944	-411.44832	567.59902	-525.96941	-397.68802	549.25712	-713.95397	-392.81515	556.68353	-542.21939	-381.28001	554.95783	-690.99622	
595	5.94000000	-140.69498	412.73475	-360.85834	-117.05302	298.88662	-366.91066	-299.24214	92.04180	-411.84410	-348.70028	52.97462	-463.99626	-206.86896	40.57725	-351.10133	-162.66418	57.71571	-386.71247	-120.51294	419.76233	-888.73895	-84.63787	304.81873	-859.24252	-285.98522	93.01233	-854.27684	-333.38642	53.43243	-804.92868	-185.34365	37.25285	-905.23674	-135.91033	53.47639	-859.61325	-176.22846	205.48294	-388.78116	-177.27253	325.67975	-329.73091	-245.00031	241.12025	-360.15908	-136.27879	352.87352	-912.81256	-202.32494	250.56924	-917.79433	-349.96670	613.94767	-432.80302	-258.77391	572.78349	-402.32939	-268.83143	519.34898	-358.71462	-406.43087	523.68425	-395.74183	-305.32976	477.77975	-364.11757	-335.45271	595.34754	-830.90575	-214.53354	551.02248	-856.88881	-395.77721	504.47812	-864.18133	-264.59054	457.76534	-888.35919	-301.58933	591.03056	-504.70368	-430.88216	705.27189	-583.76673	-288.91003	572.95926	-729.55921	-422.69884	704.07646	-689.02458	-139.96062	1019.24249	-621.47365	-83.57113	977.69744	-477.45442	-65.39562	974.22203	-760.58357	-47.20518	921.85503	-595.63717	-41.04971	921.18626	-640.32250	-47.99399	895.83869	-396.10494	-82.11554	700.76309	-304.38533	-22.26086	753.87842	-278.99344	19.43400	784.32794	-391.35168	31.44266	803.78766	-488.11968	67.80419	794.19231	-480.78624	-4.96421	872.16155	-832.27763	-9.83144	674.46195	-895.83318	50.14494	719.65854	-924.25115	76.26636	750.63035	-821.82125	53.52662	776.91329	-703.65806	84.02920	768.39056	-700.44091	-411.67591	568.53224	-526.06452	-397.83604	550.21341	-714.04535	-392.94733	557.59567	-542.33871	-381.38984	555.90731	-690.99876	
596	5.95000000	-141.00235	412.96497	-361.29259	-117.14616	299.14383	-367.00936	-299.28715	92.12097	-411.82490	-348.72957	52.97154	-464.00037	-206.87793	40.59884	-351.23355	-162.66749	57.80487	-386.77810	-120.84255	419.93477	-888.44995	-84.87910	305.05694	-859.09807	-286.02463	93.05911	-854.34541	-333.36910	53.37867	-804.88965	-185.35419	37.32428	-905.30203	-135.92004	53.48307	-859.59049	-176.31568	205.71760	-389.05880	-177.50526	325.88205	-329.99906	-245.12432	241.21142	-360.40289	-136.59063	353.07170	-912.45646	-202.53858	250.69536	-917.52951	-350.00491	614.55532	-433.05963	-259.28821	573.66555	-402.35630	-268.97226	519.84940	-359.01748	-406.59928	524.38261	-396.06734	-305.57822	478.30330	-364.82604	-335.45319	596.02405	-831.04485	-214.71315	551.09208	-856.13059	-395.98107	505.11707	-864.02760	-264.76219	458.28409	-888.26313	-301.75512	591.77329	-504.64752	-431.02890	706.29402	-583.91903	-289.04982	573.70514	-729.42852	-422.70625	705.03751	-689.10982	-140.24898	1020.26194	-621.28841	-83.93676	978.71097	-477.41363	-65.70827	975.54198	-760.45505	-47.57758	922.88987	-595.54566	-41.26953	922.34550	-640.27657	-48.46782	896.96528	-395.79724	-82.49935	701.73063	-304.38041	-22.91438	755.17400	-278.43576	19.00053	785.29578	-390.90109	31.31464	804.75965	-487.48170	67.66245	795.19287	-480.13566	-5.25829	873.66053	-832.58386	-9.91659	676.04451	-896.36982	49.82221	721.35199	-924.72683	76.25065	752.15425	-822.39187	53.74622	778.04626	-704.00711	84.19963	769.51207	-700.85313	-411.95798	569.49480	-526.09109	-398.00621	551.10173	-714.05639	-393.23809	558.52038	-542.39300	-381.48129	556.74541	-690.98807	
597	5.96000000	-141.28489	413.20902	-361.65507	-117.11087	299.45611	-366.88153	-299.34206	92.22531	-411.82418	-348.75756	52.95384	-463.98621	-206.82980	40.60100	-351.40885	-162.68857	57.84161	-386.81828	-121.16717	420.05544	-888.14697	-85.08287	305.20643	-858.86647	-286.05901	93.12706	-854.44774	-333.10768	53.14597	-804.57117	-185.36099	37.33886	-905.29889	-135.90998	53.50175	-859.58130	-176.43542	205.90068	-389.25131	-177.70923	326.04699	-330.34798	-245.21635	241.26942	-360.55036	-136.85166	353.17779	-911.99411	-202.73960	250.79909	-917.31760	-350.03525	615.11448	-433.22599	-259.71182	574.47867	-402.26767	-269.17627	520.40576	-359.06051	-406.85748	524.99695	-396.31770	-305.84495	478.78973	-365.23803	-335.51763	596.67543	-831.21049	-214.87947	551.44008	-855.78520	-396.32207	505.73895	-863.97118	-264.85140	458.84673	-888.26878	-301.96136	592.50993	-504.50926	-431.18570	707.04569	-583.94727	-289.30300	574.53700	-729.45112	-422.80275	705.90860	-689.15402	-140.57314	1021.22379	-621.24969	-84.28633	979.66397	-477.29026	-66.05025	976.79266	-760.30215	-47.92795	923.81145	-595.47948	-41.42393	923.40019	-640.11998	-48.95682	897.96788	-395.51857	-82.89139	702.70287	-304.20074	-23.48460	756.33425	-278.00970	18.61519	786.26185	-390.39165	31.19659	805.58641	-487.03482	67.41590	796.18365	-479.51219	-5.57167	875.10030	-832.81217	-10.01479	677.51323	-896.79489	49.46614	722.90463	-925.07868	76.14697	753.46736	-822.92115	53.84990	779.23974	-704.48898	84.46305	770.62188	-701.33975	-412.20165	570.28936	-526.11566	-398.20123	551.94008	-714.08169	-393.52506	559.14615	-542.36838	-381.67742	557.53904	-691.05713	
598	5.97000000	-141.64011	413.54112	-361.84533	-117.18049	299.80584	-366.82262	-299.39579	92.24668	-411.86885	-348.74553	52.91540	-463.97413	-206.79888	40.67451	-351.46470	-162.67934	57.86457	-386.86210	-121.46802	420.16254	-887.87252	-85.28493	305.31544	-858.59338	-286.08552	93.12735	-854.45973	-333.10963	53.17656	-804.61758	-185.35953	37.32660	-905.26601	-135.91235	53.51792	-859.57916	-176.61228	205.97865	-389.41567	-177.97831	326.21669	-330.67226	-245.30159	241.34255	-360.66076	-137.14911	353.33351	-911.73157	-202.91679	250.89119	-917.16375	-350.11627	615.62945	-433.26798	-260.07776	575.04224	-402.08082	-269.39545	520.94144	-359.01616	-407.17724	525.58076	-396.52644	-306.12390	479.24810	-365.26989	-335.63617	597.34747	-831.34751	-215.01791	552.10275	-856.01387	-396.62913	506.37514	-864.05654	-264.96296	459.34005	-888.26000	-302.20809	593.13689	-504.50013	-431.34397	707.64410	-583.95092	-289.51516	575.28807	-729.53868	-422.98177	706.68774	-689.28879	-140.93419	1022.06485	-621.18698	-84.62054	980.49339	-477.16586	-66.43534	977.84689	-760.11726	-48.21343	924.61978	-595.37397	-41.64919	924.30794	-639.97666	-49.43603	898.85520	-395.21820	-83.32196	703.80728	-303.74936	-23.97601	757.35450	-277.69010	18.27028	787.21554	-389.80335	31.07092	806.26523	-486.65333	67.04093	797.13744	-478.79374	-5.88865	876.40751	-832.98997	-10.19513	678.95861	-897.31048	49.17750	724.53916	-925.69959	76.03699	754.73109	-823.50041	54.00389	780.39408	-705.15767	84.75375	771.76273	-701.99501	-412.44590	570.92941	-526.22906	-398.38743	552.68492	-714.20096	-393.73548	559.64643	-542.39144	-381.92677	558.29590	-691.14449	
